# Blender v2.93.4 OBJ File: ''
# www.blender.org
mtllib WhitePlayerPlatform.mtl
o WhitePlayerPlatform.Merged_Plane-tex
v -19.000000 13.000000 5.000000
v -19.000000 11.000000 3.000000
v -19.000000 11.000000 5.000000
v -19.000000 13.000000 3.000000
v -19.000000 13.000000 -3.000000
v -19.000000 11.000000 -5.000000
v -19.000000 11.000000 -3.000000
v -19.000000 13.000000 -5.000000
v -19.000000 9.000000 -7.000000
v -19.000000 9.000000 -5.000000
v -19.000000 11.000000 -7.000000
v -19.000000 11.000000 7.000000
v -19.000000 9.000000 5.000000
v -19.000000 9.000000 7.000000
v -19.000000 3.000000 -5.000000
v -19.000000 1.000000 -7.000000
v -19.000000 1.000000 -5.000000
v -19.000000 3.000000 -7.000000
v -19.000000 3.000000 7.000000
v -19.000000 1.000000 5.000000
v -19.000000 1.000000 7.000000
v -19.000000 3.000000 5.000000
v -19.000000 1.000000 -3.000000
v -19.000000 -1.000000 -5.000000
v -19.000000 -1.000000 -3.000000
v -19.000000 -1.000000 3.000000
v -19.000000 -1.000000 5.000000
v -19.000000 1.000000 3.000000
v -21.000000 13.000000 3.000000
v -21.000000 11.000000 -3.000000
v -21.000000 11.000000 3.000000
v -21.000000 13.000000 -3.000000
v -21.000000 9.000000 -5.000000
v -21.000000 9.000000 -3.000000
v -21.000000 11.000000 -5.000000
v -21.000000 11.000000 5.000000
v -21.000000 9.000000 3.000000
v -21.000000 9.000000 5.000000
v -21.000000 3.000000 -7.000000
v -21.000000 3.000000 -5.000000
v -21.000000 9.000000 -7.000000
v -21.000000 9.000000 7.000000
v -21.000000 3.000000 5.000000
v -21.000000 3.000000 7.000000
v -21.000000 3.000000 -3.000000
v -21.000000 1.000000 -5.000000
v -21.000000 1.000000 -3.000000
v -21.000000 1.000000 3.000000
v -21.000000 1.000000 5.000000
v -21.000000 3.000000 3.000000
v -21.000000 -1.000000 -3.000000
v -21.000000 -1.000000 3.000000
v -23.000000 11.000000 3.000000
v -23.000000 9.000000 -3.000000
v -23.000000 9.000000 3.000000
v -23.000000 3.000000 -3.000000
v -23.000000 11.000000 -3.000000
v -23.000000 3.000000 -5.000000
v -23.000000 3.000000 3.000000
v -23.000000 9.000000 -5.000000
v -23.000000 1.000000 -3.000000
v -23.000000 9.000000 5.000000
v -23.000000 1.000000 3.000000
v -23.000000 3.000000 5.000000
v 23.000000 13.000000 5.000000
v 23.000000 11.000000 3.000000
v 23.000000 11.000000 5.000000
v 23.000000 13.000000 3.000000
v 23.000000 13.000000 -3.000000
v 23.000000 11.000000 -5.000000
v 23.000000 11.000000 -3.000000
v 23.000000 13.000000 -5.000000
v 23.000000 9.000000 -7.000000
v 23.000000 9.000000 -5.000000
v 23.000000 11.000000 -7.000000
v 23.000000 11.000000 7.000000
v 23.000000 9.000000 5.000000
v 23.000000 9.000000 7.000000
v 23.000000 3.000000 -5.000000
v 23.000000 1.000000 -7.000000
v 23.000000 1.000000 -5.000000
v 23.000000 3.000000 -7.000000
v 23.000000 3.000000 7.000000
v 23.000000 1.000000 5.000000
v 23.000000 1.000000 7.000000
v 23.000000 3.000000 5.000000
v 23.000000 1.000000 -3.000000
v 23.000000 -1.000000 -5.000000
v 23.000000 -1.000000 -3.000000
v 23.000000 -1.000000 3.000000
v 23.000000 -1.000000 5.000000
v 23.000000 1.000000 3.000000
v 25.000000 13.000000 3.000000
v 25.000000 11.000000 -3.000000
v 25.000000 11.000000 3.000000
v 25.000000 13.000000 -3.000000
v 25.000000 9.000000 -5.000000
v 25.000000 9.000000 -3.000000
v 25.000000 11.000000 -5.000000
v 25.000000 11.000000 5.000000
v 25.000000 9.000000 3.000000
v 25.000000 9.000000 5.000000
v 25.000000 3.000000 -7.000000
v 25.000000 3.000000 -5.000000
v 25.000000 9.000000 -7.000000
v 25.000000 9.000000 7.000000
v 25.000000 3.000000 5.000000
v 25.000000 3.000000 7.000000
v 25.000000 3.000000 -3.000000
v 25.000000 1.000000 -5.000000
v 25.000000 1.000000 -3.000000
v 25.000000 1.000000 3.000000
v 25.000000 1.000000 5.000000
v 25.000000 3.000000 3.000000
v 25.000000 -1.000000 -3.000000
v 25.000000 -1.000000 3.000000
v 27.000000 11.000000 3.000000
v 27.000000 9.000000 -3.000000
v 27.000000 9.000000 3.000000
v 27.000000 3.000000 -3.000000
v 27.000000 11.000000 -3.000000
v 27.000000 3.000000 -5.000000
v 27.000000 3.000000 3.000000
v 27.000000 9.000000 -5.000000
v 27.000000 1.000000 -3.000000
v 27.000000 9.000000 5.000000
v 27.000000 1.000000 3.000000
v 27.000000 3.000000 5.000000
vt 0.031272 0.843728
vt 0.062456 0.843728
vt 0.031272 0.812544
vt 0.062456 0.843728
vt 0.031272 0.812544
vt 0.031272 0.843728
vt 0.062456 0.843728
vt 0.031272 0.812544
vt 0.062456 0.843728
vt 0.031272 0.812544
vt 0.218772 0.843728
vt 0.249956 0.843728
vt 0.218772 0.812544
vt 0.249956 0.843728
vt 0.218772 0.812544
vt 0.218772 0.843728
vt 0.249956 0.843728
vt 0.218772 0.812544
vt 0.249956 0.843728
vt 0.218772 0.812544
vt 0.031272 0.843728
vt 0.062456 0.843728
vt 0.031272 0.812544
vt 0.062456 0.843728
vt 0.031272 0.812544
vt 0.031272 0.843728
vt 0.062456 0.843728
vt 0.031272 0.812544
vt 0.062456 0.843728
vt 0.031272 0.812544
vt 0.031272 0.843728
vt 0.062456 0.843728
vt 0.031272 0.812544
vt 0.062456 0.843728
vt 0.031272 0.812544
vt 0.031272 0.843728
vt 0.062456 0.843728
vt 0.031272 0.812544
vt 0.062456 0.843728
vt 0.031272 0.812544
vt 0.031272 0.843728
vt 0.062456 0.843728
vt 0.031272 0.812544
vt 0.062456 0.843728
vt 0.031272 0.812544
vt 0.031272 0.843728
vt 0.062456 0.843728
vt 0.031272 0.812544
vt 0.062456 0.843728
vt 0.031272 0.812544
vt 0.031272 0.843728
vt 0.062456 0.843728
vt 0.031272 0.812544
vt 0.062456 0.843728
vt 0.031272 0.812544
vt 0.031272 0.843728
vt 0.062456 0.843728
vt 0.031272 0.812544
vt 0.062456 0.843728
vt 0.031272 0.812544
vt 0.031272 0.843728
vt 0.062456 0.843728
vt 0.031272 0.812544
vt 0.062456 0.843728
vt 0.031272 0.812544
vt 0.031272 0.843728
vt 0.062456 0.843728
vt 0.031272 0.812544
vt 0.062456 0.843728
vt 0.031272 0.812544
vt 0.031272 0.843728
vt 0.062456 0.843728
vt 0.031272 0.812544
vt 0.062456 0.843728
vt 0.031272 0.812544
vt 0.031272 0.843728
vt 0.062456 0.843728
vt 0.031272 0.812544
vt 0.062456 0.843728
vt 0.031272 0.812544
vt 0.031272 0.843728
vt 0.062456 0.843728
vt 0.031272 0.812544
vt 0.031272 0.843728
vt 0.031272 0.812544
vt 0.062456 0.843728
vt 0.031272 0.812544
vt 0.031272 0.843728
vt 0.062456 0.843728
vt 0.062456 0.843728
vt 0.031272 0.812544
vt 0.062456 0.843728
vt 0.031272 0.812544
vt 0.031272 0.843728
vt 0.031272 0.812544
vt 0.031272 0.843728
vt 0.062456 0.843728
vt 0.062456 0.843728
vt 0.031272 0.812544
vt 0.062456 0.843728
vt 0.031272 0.812544
vt 0.062456 0.843728
vt 0.031272 0.843728
vt 0.031272 0.812544
vt 0.062456 0.843728
vt 0.031272 0.812544
vt 0.062456 0.843728
vt 0.031272 0.843728
vt 0.031272 0.812544
vt 0.062456 0.843728
vt 0.031272 0.812544
vt 0.249956 0.843728
vt 0.218772 0.843728
vt 0.218772 0.812544
vt 0.249956 0.843728
vt 0.218772 0.812544
vt 0.249956 0.843728
vt 0.218772 0.843728
vt 0.218772 0.812544
vt 0.249956 0.843728
vt 0.218772 0.812544
vt 0.062456 0.843728
vt 0.031272 0.843728
vt 0.031272 0.812544
vt 0.062456 0.843728
vt 0.031272 0.812544
vt 0.062456 0.843728
vt 0.031272 0.843728
vt 0.031272 0.812544
vt 0.062456 0.843728
vt 0.031272 0.812544
vt 0.062456 0.843728
vt 0.031272 0.843728
vt 0.031272 0.812544
vt 0.062456 0.843728
vt 0.031272 0.812544
vt 0.062456 0.843728
vt 0.031272 0.843728
vt 0.031272 0.812544
vt 0.062456 0.843728
vt 0.031272 0.812544
vt 0.062456 0.843728
vt 0.031272 0.843728
vt 0.031272 0.812544
vt 0.062456 0.843728
vt 0.031272 0.812544
vt 0.062456 0.843728
vt 0.031272 0.843728
vt 0.031272 0.812544
vt 0.062456 0.843728
vt 0.031272 0.812544
vt 0.062456 0.843728
vt 0.031272 0.843728
vt 0.031272 0.812544
vt 0.062456 0.843728
vt 0.031272 0.812544
vt 0.062456 0.843728
vt 0.031272 0.843728
vt 0.031272 0.812544
vt 0.062456 0.843728
vt 0.031272 0.812544
vt 0.062456 0.843728
vt 0.031272 0.843728
vt 0.031272 0.812544
vt 0.062456 0.843728
vt 0.031272 0.812544
vt 0.062456 0.843728
vt 0.031272 0.843728
vt 0.031272 0.812544
vt 0.062456 0.843728
vt 0.031272 0.812544
vt 0.062456 0.843728
vt 0.031272 0.843728
vt 0.031272 0.812544
vt 0.062456 0.843728
vt 0.031272 0.812544
vt 0.062456 0.843728
vt 0.031272 0.843728
vt 0.031272 0.812544
vt 0.062456 0.843728
vt 0.031272 0.812544
vt 0.062456 0.843728
vt 0.031272 0.843728
vt 0.031272 0.812544
vt 0.031272 0.843728
vt 0.031272 0.812544
vt 0.062456 0.843728
vt 0.031272 0.812544
vt 0.062456 0.843728
vt 0.031272 0.843728
vt 0.062456 0.843728
vt 0.031272 0.812544
vt 0.062456 0.843728
vt 0.031272 0.812544
vt 0.031272 0.843728
vt 0.031272 0.812544
vt 0.062456 0.843728
vt 0.031272 0.843728
vt 0.062456 0.843728
vt 0.031272 0.812544
vt 0.062456 0.843728
vt 0.031272 0.812544
vt 0.031272 0.843728
vt 0.031272 0.843728
vt 0.031272 0.812544
vt 0.031272 0.843728
vt 0.031272 0.812544
vt 0.687471 0.843729
vt 0.687471 0.812511
vt 0.031279 0.843739
vt 0.687441 0.843739
vt 0.687471 0.843729
vt 0.687471 0.812511
vt 0.687441 0.843739
vt 0.062456 0.843728
vt 0.031272 0.843728
vt 0.062479 0.795431
vt 0.031291 0.795431
vt 0.062479 0.735843
vt 0.062459 0.735819
vt 0.031271 0.795408
vt 0.031271 0.735819
vt 0.031271 0.735819
vt 0.062479 0.795431
vt 0.062456 0.843728
vt 0.031272 0.843728
vt 0.062479 0.795431
vt 0.031291 0.795431
vt 0.062479 0.735843
vt 0.031271 0.735819
vt 0.031272 0.843728
vt 0.031272 0.812544
vt 0.031272 0.843728
vt 0.031272 0.812544
vt 0.031272 0.843728
vt 0.031272 0.812544
vt 0.031272 0.812544
vt 0.031272 0.843728
vt 0.031272 0.812544
vt 0.031272 0.812544
vt 0.062456 0.843728
vt 0.031272 0.812544
vt 0.031272 0.812544
vt 0.062456 0.843728
vt 0.031272 0.812544
vt 0.031272 0.812544
vt 0.031272 0.843728
vt 0.062456 0.843728
vt 0.031272 0.812544
vt 0.031272 0.843728
vt 0.031272 0.812544
vt 0.062456 0.843728
vt 0.031272 0.843728
vt 0.031272 0.812544
vt 0.031272 0.843728
vt 0.031272 0.812544
vt 0.031309 0.937511
vt 0.687471 0.968729
vt 0.687471 0.937511
vt 0.031279 0.968739
vt 0.687441 0.968739
vt 0.031309 0.937511
vt 0.687471 0.968729
vt 0.687471 0.937511
vt 0.031279 0.968739
vt 0.687441 0.968739
vt 0.031272 0.843728
vt 0.031272 0.812544
vt 0.031272 0.843728
vt 0.031272 0.812544
vt 0.031272 0.843728
vt 0.031272 0.812544
vt 0.031272 0.812544
vt 0.062456 0.843728
vt 0.031272 0.812544
vt 0.031279 0.593771
vt 0.031279 0.624989
vt 0.687441 0.624989
vt 0.031272 0.812544
vt 0.031309 0.593761
vt 0.687471 0.624979
vt 0.687471 0.593761
vt 0.687471 0.624979
vt 0.687471 0.593761
vt 0.031279 0.624989
vt 0.687441 0.624989
vt 0.031272 0.843728
vt 0.062456 0.843728
vt 0.031272 0.812544
vt 0.031279 0.593771
vt 0.031279 0.624989
vt 0.687441 0.624989
vt 0.031272 0.812544
vt 0.687471 0.624979
vt 0.687471 0.593761
vt 0.062456 0.843728
vt 0.031272 0.843728
vt 0.062456 0.843728
vt 0.031272 0.843728
vt 0.062456 0.843728
vt 0.031272 0.843728
vt 0.062456 0.843728
vt 0.062456 0.843728
vt 0.031272 0.843728
vt 0.062456 0.843728
vt 0.062456 0.843728
vt 0.031309 0.593761
vt 0.687471 0.624979
vt 0.687471 0.593761
vt 0.031279 0.624989
vt 0.687441 0.624989
vt 0.062459 0.735819
vt 0.062479 0.795431
vt 0.031272 0.843728
vt 0.062456 0.843728
vt 0.062456 0.843728
vt 0.062456 0.843728
vt 0.062456 0.843728
vt 0.031279 0.890649
vt 0.031279 0.937488
vt 0.687442 0.937488
vt 0.062456 0.843728
vt 0.687471 0.968729
vt 0.687471 0.937511
vt 0.031308 0.703137
vt 0.687471 0.749976
vt 0.687471 0.703137
vt 0.031279 0.968739
vt 0.687441 0.968739
vt 0.062456 0.843728
vt 0.687441 0.843739
vt 0.062456 0.843728
vt 0.687471 0.843729
vt 0.062456 0.843728
vt 0.031272 0.843728
vt 0.062456 0.843728
vt 0.031272 0.843728
vt 0.031272 0.843728
vt 0.062456 0.843728
vt 0.031272 0.843728
vt 0.062456 0.843728
vt 0.031272 0.843728
vt 0.062456 0.843728
vt 0.031272 0.843728
vt 0.031309 0.593761
vt 0.687471 0.593761
vt 0.062459 0.735819
vt 0.031271 0.795408
vt 0.031271 0.735819
vt 0.062479 0.795431
vt 0.031272 0.843728
vt 0.062456 0.843728
vt 0.031272 0.843728
vt 0.031272 0.843728
vt 0.031279 0.937488
vt 0.031279 0.890649
vt 0.687442 0.937488
vt 0.687471 0.937511
vt 0.687471 0.749976
vt 0.031308 0.703137
vt 0.687471 0.703137
vt 0.031272 0.843728
vt 0.031279 0.843739
vt 0.687441 0.843739
vt 0.687471 0.843729
vt 0.687471 0.812511
vn -1.0000 0.0000 0.0000
vn 1.0000 0.0000 0.0000
vn 0.0000 -1.0000 0.0000
vn 0.0000 1.0000 0.0000
vn 0.0000 0.0000 1.0000
vn 0.0000 0.0000 -1.0000
usemtl lambert0
s off
f 1/1/1 2/2/1 3/3/1
f 1/1/1 4/4/1 2/5/1
f 5/6/1 6/7/1 7/8/1
f 5/6/1 8/9/1 6/10/1
f 6/11/1 9/12/1 10/13/1
f 6/11/1 11/14/1 9/15/1
f 12/16/1 13/17/1 14/18/1
f 12/16/1 3/19/1 13/20/1
f 15/21/1 16/22/1 17/23/1
f 15/21/1 18/24/1 16/25/1
f 19/26/1 20/27/1 21/28/1
f 19/26/1 22/29/1 20/30/1
f 23/31/1 24/32/1 25/33/1
f 23/31/1 17/34/1 24/35/1
f 20/36/1 26/37/1 27/38/1
f 20/36/1 28/39/1 26/40/1
f 29/41/1 30/42/1 31/43/1
f 29/41/1 32/44/1 30/45/1
f 30/46/1 33/47/1 34/48/1
f 30/46/1 35/49/1 33/50/1
f 36/51/1 37/52/1 38/53/1
f 36/51/1 31/54/1 37/55/1
f 33/56/1 39/57/1 40/58/1
f 33/56/1 41/59/1 39/60/1
f 42/61/1 43/62/1 44/63/1
f 42/61/1 38/64/1 43/65/1
f 45/66/1 46/67/1 47/68/1
f 45/66/1 40/69/1 46/70/1
f 43/71/1 48/72/1 49/73/1
f 43/71/1 50/74/1 48/75/1
f 48/76/1 51/77/1 52/78/1
f 48/76/1 47/79/1 51/80/1
f 53/81/1 54/82/1 55/83/1
f 55/84/1 54/82/1 56/85/1
f 53/81/1 57/86/1 54/87/1
f 54/88/1 58/89/1 56/85/1
f 55/84/1 56/90/1 59/91/1
f 54/88/1 60/92/1 58/93/1
f 59/94/1 56/90/1 61/95/1
f 62/96/1 55/97/1 59/91/1
f 59/94/1 61/98/1 63/99/1
f 62/96/1 59/100/1 64/101/1
f 66/102/2 65/103/2 67/104/2
f 68/105/2 65/103/2 66/106/2
f 70/107/2 69/108/2 71/109/2
f 72/110/2 69/108/2 70/111/2
f 73/112/2 70/113/2 74/114/2
f 75/115/2 70/113/2 73/116/2
f 77/117/2 76/118/2 78/119/2
f 67/120/2 76/118/2 77/121/2
f 80/122/2 79/123/2 81/124/2
f 82/125/2 79/123/2 80/126/2
f 84/127/2 83/128/2 85/129/2
f 86/130/2 83/128/2 84/131/2
f 88/132/2 87/133/2 89/134/2
f 81/135/2 87/133/2 88/136/2
f 90/137/2 84/138/2 91/139/2
f 92/140/2 84/138/2 90/141/2
f 94/142/2 93/143/2 95/144/2
f 96/145/2 93/143/2 94/146/2
f 97/147/2 94/148/2 98/149/2
f 99/150/2 94/148/2 97/151/2
f 101/152/2 100/153/2 102/154/2
f 95/155/2 100/153/2 101/156/2
f 103/157/2 97/158/2 104/159/2
f 105/160/2 97/158/2 103/161/2
f 107/162/2 106/163/2 108/164/2
f 102/165/2 106/163/2 107/166/2
f 110/167/2 109/168/2 111/169/2
f 104/170/2 109/168/2 110/171/2
f 112/172/2 107/173/2 113/174/2
f 114/175/2 107/173/2 112/176/2
f 115/177/2 112/178/2 116/179/2
f 111/180/2 112/178/2 115/181/2
f 118/182/2 117/183/2 119/184/2
f 118/182/2 119/185/2 120/186/2
f 121/187/2 117/183/2 118/188/2
f 122/189/2 118/190/2 120/186/2
f 120/191/2 119/185/2 123/192/2
f 124/193/2 118/190/2 122/194/2
f 120/191/2 123/195/2 125/196/2
f 119/197/2 126/198/2 123/192/2
f 125/199/2 123/195/2 127/200/2
f 123/201/2 126/198/2 128/202/2
f 111/180/3 127/203/3 112/176/3
f 125/199/3 127/203/3 111/169/3
f 81/135/3 111/204/3 87/205/3
f 110/167/3 111/204/3 81/124/3
f 92/140/3 113/206/3 84/131/3
f 112/172/3 113/206/3 92/207/3
f 16/208/3 81/124/3 17/209/3
f 80/210/3 81/124/3 16/211/3
f 20/212/3 85/129/3 21/213/3
f 84/138/3 85/129/3 20/214/3
f 46/67/3 23/31/3 47/68/3
f 17/34/3 23/31/3 46/70/3
f 48/72/3 20/36/3 49/73/3
f 28/39/3 20/36/3 48/75/3
f 61/98/3 48/76/3 63/99/3
f 47/79/3 48/76/3 61/95/3
f 89/215/3 116/216/3 90/141/3
f 89/217/3 90/218/3 25/219/3
f 115/177/3 116/216/3 89/134/3
f 24/220/3 89/221/3 25/222/3
f 25/219/3 90/218/3 26/223/3
f 88/224/3 89/221/3 24/220/3
f 25/225/3 26/226/3 51/80/3
f 90/227/3 91/228/3 26/229/3
f 51/77/3 26/226/3 52/78/3
f 26/229/3 91/228/3 27/230/3
f 114/175/3 128/231/3 107/166/3
f 123/201/3 128/231/3 114/232/3
f 104/170/3 120/233/3 109/234/3
f 122/189/3 120/233/3 104/159/3
f 82/125/3 104/235/3 79/236/3
f 103/157/3 104/235/3 82/237/3
f 86/130/3 108/238/3 83/239/3
f 107/162/3 108/238/3 86/240/3
f 39/57/3 15/21/3 40/58/3
f 18/24/3 15/21/3 39/60/3
f 43/62/3 19/26/3 44/63/3
f 22/29/3 19/26/3 43/65/3
f 58/89/3 45/66/3 56/85/3
f 40/69/3 45/66/3 58/93/3
f 59/100/3 43/71/3 64/101/3
f 50/74/3 43/71/3 59/91/3
f 126/198/4 101/152/4 102/154/4
f 126/198/4 119/197/4 101/156/4
f 118/190/4 97/147/4 98/149/4
f 118/190/4 124/193/4 97/151/4
f 97/158/4 73/241/4 74/242/4
f 97/158/4 105/160/4 73/243/4
f 106/163/4 77/244/4 78/245/4
f 106/163/4 102/165/4 77/246/4
f 10/247/4 41/59/4 33/50/4
f 10/247/4 9/248/4 41/249/4
f 14/250/4 38/64/4 42/251/4
f 14/250/4 13/252/4 38/53/4
f 34/253/4 60/92/4 54/87/4
f 34/253/4 33/47/4 60/254/4
f 38/255/4 55/97/4 62/256/4
f 38/255/4 37/52/4 55/83/4
f 117/183/4 94/142/4 95/144/4
f 117/183/4 121/187/4 94/146/4
f 94/148/4 70/107/4 71/109/4
f 94/148/4 99/150/4 70/111/4
f 100/153/4 66/102/4 67/104/4
f 100/153/4 95/155/4 66/106/4
f 70/257/4 11/258/4 6/259/4
f 70/257/4 75/260/4 11/261/4
f 76/262/4 3/263/4 12/264/4
f 76/262/4 67/265/4 3/266/4
f 7/267/4 35/49/4 30/45/4
f 7/267/4 6/7/4 35/268/4
f 3/269/4 31/54/4 36/270/4
f 3/269/4 2/2/4 31/43/4
f 31/271/4 57/86/4 53/272/4
f 31/271/4 30/42/4 57/273/4
f 93/143/4 69/274/4 68/275/4
f 68/276/4 69/277/4 5/278/4
f 93/143/4 96/145/4 69/279/4
f 69/280/4 8/281/4 5/282/4
f 68/276/4 5/283/4 4/284/4
f 69/280/4 72/285/4 8/286/4
f 4/287/4 5/288/4 32/289/4
f 65/290/4 68/291/4 4/292/4
f 4/287/4 32/44/4 29/293/4
f 65/290/4 4/294/4 1/295/4
f 127/203/5 114/175/5 112/176/5
f 127/203/5 123/201/5 114/232/5
f 119/185/5 95/155/5 101/156/5
f 119/185/5 117/296/5 95/144/5
f 95/297/5 68/105/5 66/106/5
f 95/297/5 93/298/5 68/275/5
f 116/216/5 92/140/5 90/141/5
f 116/216/5 112/172/5 92/207/5
f 2/299/5 29/300/5 31/43/5
f 2/299/5 4/4/5 29/293/5
f 26/226/5 48/72/5 52/78/5
f 26/226/5 28/39/5 48/75/5
f 37/301/5 53/302/5 55/83/5
f 37/301/5 31/54/5 53/272/5
f 48/76/5 59/100/5 63/99/5
f 48/76/5 50/74/5 59/91/5
f 128/231/5 102/165/5 107/166/5
f 128/231/5 126/303/5 102/154/5
f 102/304/5 67/305/5 77/246/5
f 102/304/5 100/306/5 67/104/5
f 113/206/5 86/130/5 84/131/5
f 113/206/5 107/162/5 86/240/5
f 67/307/5 1/308/5 3/309/5
f 67/307/5 65/310/5 1/311/5
f 91/228/5 20/312/5 27/230/5
f 91/228/5 84/313/5 20/312/5
f 13/314/5 36/315/5 38/53/5
f 13/314/5 3/316/5 36/270/5
f 20/36/5 43/62/5 49/73/5
f 20/36/5 22/29/5 43/65/5
f 43/71/5 62/317/5 64/101/5
f 43/71/5 38/64/5 62/256/5
f 108/238/5 78/318/5 83/239/5
f 83/319/5 78/320/5 14/321/5
f 108/238/5 106/322/5 78/245/5
f 78/320/5 12/323/5 14/324/5
f 83/325/5 14/326/5 19/327/5
f 78/320/5 76/328/5 12/329/5
f 19/26/5 14/330/5 42/251/5
f 85/129/5 83/128/5 19/331/5
f 19/26/5 42/332/5 44/63/5
f 85/129/5 19/333/5 21/213/5
f 109/334/6 125/335/6 111/169/6
f 120/191/6 125/335/6 109/234/6
f 94/142/6 118/190/6 98/149/6
f 121/187/6 118/190/6 94/146/6
f 69/274/6 94/148/6 71/109/6
f 96/145/6 94/148/6 69/279/6
f 87/336/6 115/337/6 89/134/6
f 111/180/6 115/337/6 87/205/6
f 32/44/6 7/267/6 30/45/6
f 5/288/6 7/267/6 32/289/6
f 47/79/6 25/338/6 51/80/6
f 23/339/6 25/338/6 47/68/6
f 57/86/6 34/253/6 54/87/6
f 30/42/6 34/253/6 57/273/6
f 56/90/6 47/340/6 61/95/6
f 45/341/6 47/340/6 56/85/6
f 97/147/6 122/342/6 104/159/6
f 124/193/6 122/342/6 97/151/6
f 70/107/6 97/158/6 74/242/6
f 99/150/6 97/158/6 70/111/6
f 79/343/6 110/344/6 81/124/6
f 104/170/6 110/344/6 79/236/6
f 8/281/6 70/345/6 6/346/6
f 72/285/6 70/345/6 8/286/6
f 17/347/6 88/348/6 24/349/6
f 81/350/6 88/348/6 17/347/6
f 35/49/6 10/247/6 33/50/6
f 6/7/6 10/247/6 35/268/6
f 40/69/6 17/351/6 46/70/6
f 15/352/6 17/351/6 40/58/6
f 60/92/6 40/353/6 58/93/6
f 33/47/6 40/353/6 60/254/6
f 73/241/6 103/354/6 82/237/6
f 73/355/6 82/356/6 9/357/6
f 105/160/6 103/354/6 73/243/6
f 11/258/6 73/355/6 9/358/6
f 9/359/6 82/360/6 18/361/6
f 75/260/6 73/355/6 11/261/6
f 9/248/6 18/362/6 41/249/6
f 82/363/6 80/126/6 18/364/6
f 41/59/6 18/362/6 39/60/6
f 18/365/6 80/126/6 16/366/6
