# Blender v2.93.4 OBJ File: ''
# www.blender.org
mtllib LongBrick.mtl
o exported.Merged_Plane-tex.002
v -21.000000 13.000000 5.000000
v -21.000000 11.000000 -5.000000
v -21.000000 11.000000 5.000000
v -21.000000 13.000000 -5.000000
v -21.000000 1.000000 5.000000
v -21.000000 -1.000000 -5.000000
v -21.000000 -1.000000 5.000000
v -21.000000 1.000000 -5.000000
v -23.000000 11.000000 7.000000
v -23.000000 1.000000 -7.000000
v -23.000000 1.000000 7.000000
v -23.000000 11.000000 -7.000000
v 25.000000 13.000000 5.000000
v 25.000000 11.000000 -5.000000
v 25.000000 11.000000 5.000000
v 25.000000 13.000000 -5.000000
v 25.000000 1.000000 5.000000
v 25.000000 -1.000000 -5.000000
v 25.000000 -1.000000 5.000000
v 25.000000 1.000000 -5.000000
v 27.000000 11.000000 7.000000
v 27.000000 1.000000 -7.000000
v 27.000000 1.000000 7.000000
v 27.000000 11.000000 -7.000000
vt 0.062522 0.968728
vt 0.093706 0.968728
vt 0.062522 0.937544
vt 0.093706 0.968728
vt 0.062522 0.937544
vt 0.062522 0.968728
vt 0.093706 0.968728
vt 0.062522 0.937544
vt 0.093706 0.968728
vt 0.062522 0.937544
vt 0.031267 0.781198
vt 0.062465 0.703151
vt 0.031267 0.703151
vt 0.062483 0.781224
vt 0.093706 0.968728
vt 0.062522 0.968728
vt 0.062522 0.937544
vt 0.093706 0.968728
vt 0.062522 0.937544
vt 0.093706 0.968728
vt 0.062522 0.968728
vt 0.062522 0.937544
vt 0.093706 0.968728
vt 0.062522 0.937544
vt 0.062465 0.703151
vt 0.031267 0.781198
vt 0.031267 0.703151
vt 0.062483 0.781224
vt 0.062526 0.656230
vt 0.031280 0.625010
vt 0.812444 0.625010
vt 0.781221 0.656239
vt 0.062562 0.656239
vt 0.812467 0.625023
vt 0.093706 0.968728
vt 0.062522 0.968728
vt 0.062522 0.937544
vt 0.093706 0.968728
vt 0.062522 0.937544
vt 0.062522 0.968728
vt 0.062522 0.937544
vt 0.031280 0.656240
vt 0.062526 0.625020
vt 0.812444 0.656240
vt 0.062562 0.625011
vt 0.781221 0.625011
vt 0.812467 0.656227
vt 0.749971 0.562479
vt 0.031309 0.531261
vt 0.749971 0.531261
vt 0.031279 0.562489
vt 0.749941 0.562489
vt 0.031280 0.937510
vt 0.062526 0.968730
vt 0.812444 0.937510
vt 0.062562 0.968739
vt 0.781221 0.968739
vt 0.812467 0.937523
vt 0.062522 0.968728
vt 0.093706 0.968728
vt 0.062522 0.968728
vt 0.093706 0.968728
vt 0.062522 0.937544
vt 0.062522 0.968728
vt 0.062522 0.937544
vt 0.031280 0.968740
vt 0.812444 0.968740
vt 0.781221 0.937511
vt 0.062562 0.937511
vt 0.812467 0.968727
vt 0.062559 0.937511
vt 0.781221 0.968729
vt 0.781221 0.937511
vt 0.062529 0.937521
vt 0.062529 0.968739
vt 0.749971 0.562479
vt 0.031279 0.562489
vt 0.749941 0.562489
vt 0.062559 0.937511
vt 0.781221 0.968729
vt 0.781221 0.937511
vt 0.031299 0.656269
vt 0.812475 0.812462
vt 0.812475 0.656269
vt 0.031275 0.781288
vt 0.749971 0.562479
vt 0.031309 0.531261
vt 0.749971 0.531261
vt 0.031279 0.562489
vt 0.749941 0.562489
vt 0.812475 0.812462
vt 0.031299 0.656269
vt 0.812475 0.656269
vt 0.031275 0.937481
vt 0.031275 0.781288
vt 0.812451 0.937481
vn -1.0000 0.0000 0.0000
vn 1.0000 0.0000 0.0000
vn 0.0000 -1.0000 0.0000
vn 0.0000 1.0000 0.0000
vn 0.0000 0.0000 1.0000
vn 0.0000 0.0000 -1.0000
usemtl lambert0.002
s off
f 1/1/1 2/2/1 3/3/1
f 1/1/1 4/4/1 2/5/1
f 5/6/1 6/7/1 7/8/1
f 5/6/1 8/9/1 6/10/1
f 9/11/1 10/12/1 11/13/1
f 9/11/1 12/14/1 10/12/1
f 14/15/2 13/16/2 15/17/2
f 16/18/2 13/16/2 14/19/2
f 18/20/2 17/21/2 19/22/2
f 20/23/2 17/21/2 18/24/2
f 22/25/2 21/26/2 23/27/2
f 24/28/2 21/26/2 22/25/2
f 17/29/3 23/30/3 11/31/3
f 5/32/3 17/33/3 11/34/3
f 22/35/3 23/36/3 17/37/3
f 10/38/3 5/6/3 11/39/3
f 20/23/3 22/40/3 17/37/3
f 8/9/3 5/6/3 10/41/3
f 22/42/3 20/43/3 10/44/3
f 20/45/3 8/46/3 10/47/3
f 6/48/3 19/49/3 7/50/3
f 18/51/3 19/49/3 6/52/3
f 21/53/4 15/54/4 9/55/4
f 15/56/4 3/57/4 9/58/4
f 21/59/4 24/60/4 15/17/4
f 3/61/4 12/62/4 9/63/4
f 24/64/4 14/15/4 15/17/4
f 3/61/4 2/2/4 12/65/4
f 14/19/4 24/66/4 12/67/4
f 2/68/4 14/69/4 12/70/4
f 13/71/4 4/72/4 1/73/4
f 13/74/4 16/75/4 4/72/4
f 19/49/5 5/76/5 7/50/5
f 19/49/5 17/77/5 5/78/5
f 15/79/5 1/80/5 3/81/5
f 15/17/5 13/16/5 1/80/5
f 23/82/5 9/83/5 11/84/5
f 23/85/5 21/53/5 9/58/5
f 8/86/6 18/87/6 6/88/6
f 20/89/6 18/87/6 8/90/6
f 4/72/6 14/69/6 2/68/6
f 16/75/6 14/19/6 4/72/6
f 12/91/6 22/92/6 10/93/6
f 24/94/6 22/95/6 12/96/6
