# Blender v2.93.4 OBJ File: ''
# www.blender.org
mtllib MiddleBrick.mtl
o exported.Merged_Plane-tex.003
v -13.000000 13.000000 5.000000
v -13.000000 11.000000 -5.000000
v -13.000000 11.000000 5.000000
v -13.000000 13.000000 -5.000000
v -13.000000 1.000000 5.000000
v -13.000000 -1.000000 -5.000000
v -13.000000 -1.000000 5.000000
v -13.000000 1.000000 -5.000000
v -15.000000 11.000000 7.000000
v -15.000000 1.000000 -7.000000
v -15.000000 1.000000 7.000000
v -15.000000 11.000000 -7.000000
v 15.000000 13.000000 5.000000
v 15.000000 11.000000 -5.000000
v 15.000000 11.000000 5.000000
v 15.000000 13.000000 -5.000000
v 15.000000 1.000000 5.000000
v 15.000000 -1.000000 -5.000000
v 15.000000 -1.000000 5.000000
v 15.000000 1.000000 -5.000000
v 17.000000 11.000000 7.000000
v 17.000000 1.000000 -7.000000
v 17.000000 1.000000 7.000000
v 17.000000 11.000000 -7.000000
vt 0.062522 0.968728
vt 0.093706 0.968728
vt 0.062522 0.937544
vt 0.093706 0.968728
vt 0.062522 0.937544
vt 0.062522 0.968728
vt 0.093706 0.968728
vt 0.062522 0.937544
vt 0.093706 0.968728
vt 0.062522 0.937544
vt 0.031267 0.781198
vt 0.062465 0.703151
vt 0.031267 0.703151
vt 0.062483 0.781224
vt 0.093706 0.968728
vt 0.062522 0.968728
vt 0.062522 0.937544
vt 0.093706 0.968728
vt 0.062522 0.937544
vt 0.093706 0.968728
vt 0.062522 0.968728
vt 0.062522 0.937544
vt 0.093706 0.968728
vt 0.062522 0.937544
vt 0.062465 0.703151
vt 0.031267 0.781198
vt 0.031267 0.703151
vt 0.062483 0.781224
vt 0.062524 0.656229
vt 0.031279 0.625010
vt 0.531196 0.625010
vt 0.499971 0.656238
vt 0.062564 0.656238
vt 0.093706 0.968728
vt 0.062522 0.968728
vt 0.062522 0.937544
vt 0.093706 0.968728
vt 0.062522 0.937544
vt 0.062522 0.968728
vt 0.062522 0.937544
vt 0.031279 0.656240
vt 0.062524 0.625021
vt 0.531196 0.656240
vt 0.062564 0.625012
vt 0.499971 0.625012
vt 0.468721 0.541644
vt 0.031308 0.489594
vt 0.468721 0.489594
vt 0.468721 0.489594
vt 0.468721 0.541644
vt 0.031308 0.489594
vt 0.031279 0.937510
vt 0.062524 0.968729
vt 0.531196 0.937510
vt 0.062564 0.968738
vt 0.499971 0.968738
vt 0.062522 0.968728
vt 0.093706 0.968728
vt 0.062522 0.968728
vt 0.093706 0.968728
vt 0.062522 0.937544
vt 0.062522 0.968728
vt 0.062522 0.937544
vt 0.031279 0.968740
vt 0.531196 0.968740
vt 0.499971 0.937512
vt 0.062564 0.937512
vt 0.062558 0.937511
vt 0.499971 0.968728
vt 0.499971 0.937511
vt 0.062529 0.937522
vt 0.062529 0.968739
vt 0.499942 0.968739
vt 0.031308 0.437511
vt 0.468721 0.468728
vt 0.468721 0.437511
vt 0.031279 0.468739
vt 0.062558 0.937511
vt 0.499971 0.968728
vt 0.499971 0.937511
vt 0.499942 0.968739
vt 0.031299 0.656270
vt 0.531226 0.812461
vt 0.531226 0.656270
vt 0.031274 0.781289
vt 0.468721 0.468728
vt 0.031308 0.437511
vt 0.468721 0.437511
vt 0.031279 0.468739
vt 0.531226 0.812461
vt 0.031299 0.656270
vt 0.531226 0.656270
vt 0.031274 0.937480
vt 0.031274 0.781289
vt 0.531201 0.937480
vn -1.0000 0.0000 0.0000
vn 1.0000 0.0000 0.0000
vn 0.0000 -1.0000 0.0000
vn 0.0000 1.0000 0.0000
vn 0.0000 0.0000 1.0000
vn 0.0000 0.0000 -1.0000
usemtl lambert0.003
s off
f 1/1/1 2/2/1 3/3/1
f 1/1/1 4/4/1 2/5/1
f 5/6/1 6/7/1 7/8/1
f 5/6/1 8/9/1 6/10/1
f 9/11/1 10/12/1 11/13/1
f 9/11/1 12/14/1 10/12/1
f 14/15/2 13/16/2 15/17/2
f 16/18/2 13/16/2 14/19/2
f 18/20/2 17/21/2 19/22/2
f 20/23/2 17/21/2 18/24/2
f 22/25/2 21/26/2 23/27/2
f 24/28/2 21/26/2 22/25/2
f 17/29/3 23/30/3 11/31/3
f 5/32/3 17/33/3 11/31/3
f 22/34/3 23/35/3 17/36/3
f 10/37/3 5/6/3 11/38/3
f 20/23/3 22/39/3 17/36/3
f 8/9/3 5/6/3 10/40/3
f 22/41/3 20/42/3 10/43/3
f 20/44/3 8/45/3 10/43/3
f 6/46/3 19/47/3 7/48/3
f 18/49/3 19/50/3 6/51/3
f 21/52/4 15/53/4 9/54/4
f 15/55/4 3/56/4 9/54/4
f 21/57/4 24/58/4 15/17/4
f 3/59/4 12/60/4 9/61/4
f 24/62/4 14/15/4 15/17/4
f 3/59/4 2/2/4 12/63/4
f 14/19/4 24/64/4 12/65/4
f 2/66/4 14/67/4 12/65/4
f 13/68/4 4/69/4 1/70/4
f 13/71/4 16/72/4 4/73/4
f 19/74/5 5/75/5 7/76/5
f 19/74/5 17/77/5 5/75/5
f 15/78/5 1/79/5 3/80/5
f 15/17/5 13/16/5 1/81/5
f 23/82/5 9/83/5 11/84/5
f 23/85/5 21/52/5 9/54/5
f 8/86/6 18/87/6 6/88/6
f 20/89/6 18/87/6 8/86/6
f 4/69/6 14/67/6 2/66/6
f 16/72/6 14/19/6 4/73/6
f 12/90/6 22/91/6 10/92/6
f 24/93/6 22/94/6 12/95/6
