# Blender v2.93.4 OBJ File: ''
# www.blender.org
mtllib SmallBrick.mtl
o exported.Merged_Plane-tex.004
v -3.000000 13.000000 5.000000
v -3.000000 11.000000 -5.000000
v -3.000000 11.000000 5.000000
v -3.000000 13.000000 -5.000000
v -3.000000 1.000000 5.000000
v -3.000000 -1.000000 -5.000000
v -3.000000 -1.000000 5.000000
v -3.000000 1.000000 -5.000000
v -5.000000 11.000000 7.000000
v -5.000000 1.000000 -7.000000
v -5.000000 1.000000 7.000000
v -5.000000 11.000000 -7.000000
v 7.000000 13.000000 5.000000
v 7.000000 11.000000 -5.000000
v 7.000000 11.000000 5.000000
v 7.000000 13.000000 -5.000000
v 7.000000 1.000000 5.000000
v 7.000000 -1.000000 -5.000000
v 7.000000 -1.000000 5.000000
v 7.000000 1.000000 -5.000000
v 9.000000 11.000000 7.000000
v 9.000000 1.000000 -7.000000
v 9.000000 1.000000 7.000000
v 9.000000 11.000000 -7.000000
vt 0.687456 0.937456
vt 0.687456 0.875088
vt 0.625088 0.937456
vt 0.687456 0.875088
vt 0.625088 0.937456
vt 0.687456 0.937456
vt 0.687456 0.875088
vt 0.625088 0.937456
vt 0.687456 0.875088
vt 0.625088 0.937456
vt 0.625026 0.937387
vt 0.687447 0.625057
vt 0.625026 0.625057
vt 0.625053 0.937443
vt 0.687474 0.937443
vt 0.687474 0.625113
vt 0.687456 0.875088
vt 0.687456 0.937456
vt 0.625088 0.937456
vt 0.687456 0.875088
vt 0.625088 0.937456
vt 0.687456 0.875088
vt 0.687456 0.937456
vt 0.625088 0.937456
vt 0.687456 0.875088
vt 0.625088 0.937456
vt 0.687447 0.625057
vt 0.625026 0.937387
vt 0.625026 0.625057
vt 0.687474 0.937443
vt 0.625053 0.937443
vt 0.687474 0.625113
vt 0.124934 0.520800
vt 0.062533 0.541614
vt 0.062533 0.395919
vt 0.124951 0.416706
vt 0.124951 0.520726
vt 0.062598 0.395902
vt 0.687456 0.875088
vt 0.687456 0.937456
vt 0.625088 0.937456
vt 0.687456 0.875088
vt 0.625088 0.937456
vt 0.687456 0.937456
vt 0.625088 0.937456
vt 0.124967 0.541614
vt 0.062566 0.520800
vt 0.124967 0.395919
vt 0.062549 0.520726
vt 0.062549 0.416706
vt 0.124902 0.395902
vt 0.124947 0.562557
vt 0.062526 0.874887
vt 0.062526 0.562557
vt 0.124974 0.874943
vt 0.062553 0.874943
vt 0.124974 0.562613
vt 0.750033 0.604114
vt 0.812434 0.583300
vt 0.750033 0.458419
vt 0.812451 0.583226
vt 0.812451 0.479206
vt 0.750098 0.458402
vt 0.687456 0.937456
vt 0.687456 0.875088
vt 0.687456 0.937456
vt 0.687456 0.875088
vt 0.625088 0.937456
vt 0.687456 0.937456
vt 0.625088 0.937456
vt 0.750066 0.583300
vt 0.812467 0.604114
vt 0.812467 0.458419
vt 0.750049 0.479206
vt 0.750049 0.583226
vt 0.812402 0.458402
vt 0.750044 0.583245
vt 0.812412 0.479211
vt 0.750044 0.479211
vt 0.750088 0.583289
vt 0.812456 0.583289
vt 0.812456 0.479255
vt 0.124947 0.562557
vt 0.124974 0.874943
vt 0.124974 0.562613
vt 0.750044 0.583245
vt 0.812412 0.479211
vt 0.750044 0.479211
vt 0.750088 0.583289
vt 0.812456 0.583289
vt 0.812456 0.479255
vt 0.187592 0.312542
vt 0.624954 0.624915
vt 0.624954 0.312542
vt 0.624954 0.937458
vt 0.187592 0.937458
vt 0.124947 0.562557
vt 0.062526 0.874887
vt 0.062526 0.562557
vt 0.124974 0.874943
vt 0.062553 0.874943
vt 0.124974 0.562613
vt 0.624954 0.624915
vt 0.187592 0.312542
vt 0.624954 0.312542
vt 0.624954 0.937458
vt 0.624954 0.625085
vt 0.187592 0.937458
vn -1.0000 0.0000 0.0000
vn 1.0000 0.0000 0.0000
vn 0.0000 -1.0000 0.0000
vn 0.0000 1.0000 0.0000
vn 0.0000 0.0000 1.0000
vn 0.0000 0.0000 -1.0000
usemtl lambert0.004
s off
f 1/1/1 2/2/1 3/3/1
f 1/1/1 4/4/1 2/5/1
f 5/6/1 6/7/1 7/8/1
f 5/6/1 8/9/1 6/10/1
f 9/11/1 10/12/1 11/13/1
f 9/14/1 12/15/1 10/16/1
f 14/17/2 13/18/2 15/19/2
f 16/20/2 13/18/2 14/21/2
f 18/22/2 17/23/2 19/24/2
f 20/25/2 17/23/2 18/26/2
f 22/27/2 21/28/2 23/29/2
f 24/30/2 21/31/2 22/32/2
f 17/33/3 23/34/3 11/35/3
f 5/36/3 17/37/3 11/38/3
f 22/39/3 23/40/3 17/41/3
f 10/42/3 5/6/3 11/43/3
f 20/25/3 22/44/3 17/41/3
f 8/9/3 5/6/3 10/45/3
f 22/46/3 20/47/3 10/48/3
f 20/49/3 8/50/3 10/51/3
f 6/52/3 19/53/3 7/54/3
f 18/55/3 19/56/3 6/57/3
f 21/58/4 15/59/4 9/60/4
f 15/61/4 3/62/4 9/63/4
f 21/64/4 24/65/4 15/19/4
f 3/66/4 12/67/4 9/68/4
f 24/69/4 14/17/4 15/19/4
f 3/66/4 2/2/4 12/70/4
f 14/71/4 24/72/4 12/73/4
f 2/74/4 14/75/4 12/76/4
f 13/77/4 4/78/4 1/79/4
f 13/80/4 16/81/4 4/82/4
f 19/53/5 5/83/5 7/54/5
f 19/56/5 17/84/5 5/85/5
f 15/86/5 1/87/5 3/88/5
f 15/89/5 13/90/5 1/91/5
f 23/92/5 9/93/5 11/94/5
f 23/29/5 21/95/5 9/96/5
f 8/97/6 18/98/6 6/99/6
f 20/100/6 18/101/6 8/102/6
f 4/78/6 14/75/6 2/74/6
f 16/81/6 14/71/6 4/82/6
f 12/103/6 22/104/6 10/105/6
f 24/106/6 22/107/6 12/108/6
