# Blender v2.93.4 OBJ File: ''
# www.blender.org
mtllib LongBrokenBrick.mtl
o YellowLongBrokenBrick.Merged_Plane-tex.007
v -11.000000 7.000000 7.000000
v -11.000000 3.000000 5.000000
v -11.000000 3.000000 7.000000
v -11.000000 7.000000 5.000000
v -11.000000 7.000000 -5.000000
v -11.000000 3.000000 -7.000000
v -11.000000 3.000000 -5.000000
v -11.000000 7.000000 -7.000000
v 13.000000 7.000000 7.000000
v 13.000000 3.000000 5.000000
v 13.000000 3.000000 7.000000
v 13.000000 7.000000 5.000000
v 13.000000 7.000000 -5.000000
v 13.000000 3.000000 -7.000000
v 13.000000 3.000000 -5.000000
v 13.000000 7.000000 -7.000000
v 17.000000 7.000000 7.000000
v 17.000000 3.000000 -7.000000
v 17.000000 3.000000 7.000000
v 17.000000 7.000000 -7.000000
v -21.000000 13.000000 5.000000
v -21.000000 11.000000 -5.000000
v -21.000000 11.000000 5.000000
v -21.000000 13.000000 -5.000000
v -21.000000 1.000000 -7.000000
v -21.000000 1.000000 -5.000000
v -21.000000 11.000000 -7.000000
v -21.000000 11.000000 7.000000
v -21.000000 1.000000 5.000000
v -21.000000 1.000000 7.000000
v -21.000000 -1.000000 -5.000000
v -21.000000 -1.000000 5.000000
v -23.000000 11.000000 5.000000
v -23.000000 1.000000 -5.000000
v -23.000000 1.000000 5.000000
v -23.000000 11.000000 -5.000000
v -9.000000 7.000000 7.000000
v -9.000000 3.000000 5.000000
v -9.000000 3.000000 7.000000
v -9.000000 7.000000 5.000000
v -9.000000 7.000000 -5.000000
v -9.000000 3.000000 -7.000000
v -9.000000 3.000000 -5.000000
v -9.000000 7.000000 -7.000000
v 15.000000 7.000000 7.000000
v 15.000000 3.000000 5.000000
v 15.000000 3.000000 7.000000
v 15.000000 7.000000 5.000000
v 15.000000 7.000000 -5.000000
v 15.000000 3.000000 -7.000000
v 15.000000 3.000000 -5.000000
v 15.000000 7.000000 -7.000000
v -13.000000 7.000000 7.000000
v -13.000000 3.000000 -7.000000
v -13.000000 3.000000 7.000000
v -13.000000 7.000000 -7.000000
v 25.000000 13.000000 5.000000
v 25.000000 11.000000 -5.000000
v 25.000000 11.000000 5.000000
v 25.000000 13.000000 -5.000000
v 25.000000 1.000000 -7.000000
v 25.000000 1.000000 -5.000000
v 25.000000 11.000000 -7.000000
v 25.000000 11.000000 7.000000
v 25.000000 1.000000 5.000000
v 25.000000 1.000000 7.000000
v 25.000000 -1.000000 -5.000000
v 25.000000 -1.000000 5.000000
v 27.000000 11.000000 5.000000
v 27.000000 1.000000 -5.000000
v 27.000000 1.000000 5.000000
v 27.000000 11.000000 -5.000000
vt 0.093772 0.812478
vt 0.124956 0.812478
vt 0.093772 0.781294
vt 0.124956 0.812478
vt 0.093772 0.781294
vt 0.093772 0.812478
vt 0.124956 0.812478
vt 0.093772 0.781294
vt 0.124956 0.812478
vt 0.093772 0.781294
vt 0.093772 0.812478
vt 0.124956 0.812478
vt 0.093772 0.781294
vt 0.124956 0.812478
vt 0.093772 0.781294
vt 0.093772 0.812478
vt 0.124956 0.812478
vt 0.093772 0.781294
vt 0.124956 0.812478
vt 0.093772 0.781294
vt 0.093772 0.812478
vt 0.124956 0.812478
vt 0.093772 0.781294
vt 0.124956 0.812478
vt 0.093772 0.781294
vt 0.531272 0.687522
vt 0.562456 0.687522
vt 0.531272 0.718706
vt 0.562456 0.687522
vt 0.531272 0.718706
vt 0.812517 0.609323
vt 0.843715 0.531276
vt 0.812517 0.531276
vt 0.843733 0.609349
vt 0.812517 0.609323
vt 0.843715 0.531276
vt 0.812517 0.531276
vt 0.843733 0.609349
vt 0.531272 0.687522
vt 0.562456 0.687522
vt 0.531272 0.718706
vt 0.562456 0.687522
vt 0.531272 0.718706
vt 0.812517 0.624948
vt 0.843715 0.546901
vt 0.812517 0.546901
vt 0.812535 0.624974
vt 0.843733 0.624974
vt 0.124956 0.812478
vt 0.093772 0.812478
vt 0.093772 0.781294
vt 0.124956 0.812478
vt 0.093772 0.781294
vt 0.124956 0.812478
vt 0.093772 0.812478
vt 0.093772 0.781294
vt 0.124956 0.812478
vt 0.093772 0.781294
vt 0.124956 0.812478
vt 0.093772 0.812478
vt 0.093772 0.781294
vt 0.124956 0.812478
vt 0.093772 0.781294
vt 0.124956 0.812478
vt 0.093772 0.812478
vt 0.093772 0.781294
vt 0.124956 0.812478
vt 0.093772 0.781294
vt 0.124956 0.812478
vt 0.093772 0.812478
vt 0.093772 0.781294
vt 0.124956 0.812478
vt 0.093772 0.781294
vt 0.562456 0.687522
vt 0.531272 0.687522
vt 0.531272 0.718706
vt 0.562456 0.687522
vt 0.531272 0.718706
vt 0.843715 0.531276
vt 0.812517 0.609323
vt 0.812517 0.531276
vt 0.843733 0.609349
vt 0.843715 0.531276
vt 0.812517 0.609323
vt 0.812517 0.531276
vt 0.843733 0.609349
vt 0.562456 0.687522
vt 0.531272 0.687522
vt 0.531272 0.718706
vt 0.562456 0.687522
vt 0.531272 0.718706
vt 0.843715 0.546901
vt 0.812517 0.624948
vt 0.812517 0.546901
vt 0.843733 0.624974
vt 0.812535 0.624974
vt 0.749971 0.812479
vt 0.031309 0.781261
vt 0.749971 0.781261
vt 0.031279 0.812489
vt 0.749941 0.812489
vt 0.531272 0.687522
vt 0.531272 0.718706
vt 0.562456 0.687522
vt 0.531272 0.718706
vt 0.749971 0.593729
vt 0.031309 0.562511
vt 0.749971 0.562511
vt 0.031279 0.593739
vt 0.749941 0.593739
vt 0.749971 0.593729
vt 0.031309 0.562511
vt 0.749971 0.562511
vt 0.031279 0.593739
vt 0.749941 0.593739
vt 0.562456 0.687522
vt 0.531272 0.718706
vt 0.531272 0.718706
vt 0.062456 0.687478
vt 0.031272 0.687478
vt 0.031272 0.656294
vt 0.062456 0.687478
vt 0.031272 0.656294
vt 0.062456 0.687478
vt 0.031272 0.687478
vt 0.031272 0.687478
vt 0.031272 0.656294
vt 0.062456 0.687478
vt 0.031272 0.656294
vt 0.062456 0.687478
vt 0.031272 0.656294
vt 0.031272 0.687478
vt 0.031272 0.656294
vt 0.062456 0.687478
vt 0.031272 0.687478
vt 0.062456 0.687478
vt 0.031272 0.656294
vt 0.062456 0.687478
vt 0.031272 0.656294
vt 0.031272 0.687478
vt 0.031272 0.656294
vt 0.062456 0.687478
vt 0.031272 0.687478
vt 0.062456 0.687478
vt 0.031272 0.656294
vt 0.062456 0.687478
vt 0.031272 0.656294
vt 0.031272 0.687478
vt 0.031272 0.656294
vt 0.062456 0.687478
vt 0.031272 0.687478
vt 0.062456 0.687478
vt 0.031272 0.687478
vt 0.062456 0.687478
vt 0.531272 0.687522
vt 0.562456 0.687522
vt 0.531272 0.718706
vt 0.562456 0.687522
vt 0.531272 0.718706
vt 0.531272 0.687522
vt 0.562456 0.687522
vt 0.531272 0.687522
vt 0.531272 0.718706
vt 0.562456 0.687522
vt 0.531272 0.718706
vt 0.562456 0.687522
vt 0.531272 0.718706
vt 0.531272 0.687522
vt 0.531272 0.718706
vt 0.531272 0.687522
vt 0.562456 0.687522
vt 0.562456 0.687522
vt 0.531272 0.718706
vt 0.562456 0.687522
vt 0.531272 0.718706
vt 0.531272 0.687522
vt 0.531272 0.718706
vt 0.531272 0.687522
vt 0.562456 0.687522
vt 0.562456 0.687522
vt 0.531272 0.718706
vt 0.562456 0.687522
vt 0.531272 0.718706
vt 0.531272 0.687522
vt 0.531272 0.718706
vt 0.531272 0.687522
vt 0.562456 0.687522
vt 0.531272 0.687522
vt 0.562456 0.687522
vt 0.562456 0.687522
vt 0.531272 0.687522
vt 0.562456 0.687522
vt 0.031309 0.906261
vt 0.749971 0.937479
vt 0.749971 0.906261
vt 0.031279 0.937489
vt 0.749941 0.937489
vt 0.031309 0.906261
vt 0.749971 0.937479
vt 0.749971 0.906261
vt 0.031279 0.937489
vt 0.749941 0.937489
vt 0.531272 0.687522
vt 0.562456 0.687522
vt 0.531272 0.718706
vt 0.531272 0.718706
vt 0.031309 0.906261
vt 0.749971 0.937479
vt 0.749971 0.906261
vt 0.031279 0.937489
vt 0.749941 0.937489
vt 0.843715 0.546901
vt 0.812517 0.624948
vt 0.812517 0.546901
vt 0.843733 0.624974
vt 0.812535 0.624974
vt 0.031309 0.906261
vt 0.749971 0.937479
vt 0.749971 0.906261
vt 0.031279 0.937489
vt 0.749941 0.937489
vt 0.749971 0.812479
vt 0.031279 0.812489
vt 0.749941 0.812489
vt 0.843715 0.546901
vt 0.843733 0.624974
vt 0.093772 0.812478
vt 0.124956 0.812478
vt 0.124956 0.812478
vt 0.093772 0.781294
vt 0.093772 0.812478
vt 0.124956 0.812478
vt 0.124956 0.812478
vt 0.093772 0.781294
vt 0.218767 0.593724
vt 0.749937 0.562513
vt 0.843715 0.781322
vt 0.812517 0.937474
vt 0.812517 0.968705
vt 0.031358 0.499975
vt 0.374981 0.499975
vt 0.562411 0.468799
vt 0.093772 0.812478
vt 0.124956 0.812478
vt 0.812546 0.624937
vt 0.843727 0.562521
vt 0.843727 0.546917
vt 0.812517 0.968705
vt 0.812517 0.937474
vt 0.843715 0.781322
vt 0.124956 0.812478
vt 0.093772 0.781294
vt 0.656219 0.687494
vt 0.531311 0.703102
vt 0.656219 0.656279
vt 0.843727 0.609333
vt 0.843727 0.593729
vt 0.093772 0.812478
vt 0.124956 0.812478
vt 0.812439 0.531206
vt 0.625039 0.468772
vt 0.656272 0.468772
vt 0.812483 0.625030
vt 0.812483 0.781224
vt 0.687535 0.718746
vt 0.531311 0.703102
vt 0.656219 0.687494
vt 0.656219 0.656279
vt 0.124956 0.812478
vt 0.093772 0.781294
vt 0.093721 0.742209
vt 0.093721 0.750011
vt 0.031309 0.781217
vt 0.749954 0.906236
vt 0.218763 0.843779
vt 0.031283 0.906236
vt 0.812483 0.625030
vt 0.687535 0.718746
vt 0.812483 0.781224
vt 0.656272 0.468772
vt 0.625039 0.468772
vt 0.812439 0.531206
vt 0.374985 0.656278
vt 0.031332 0.656278
vt 0.562433 0.718695
vt 0.093721 0.750011
vt 0.093721 0.742209
vt 0.031309 0.781217
vt 0.812517 0.624948
vt 0.812517 0.546901
vt 0.812535 0.624974
vt 0.749971 0.812479
vt 0.031309 0.781261
vt 0.749971 0.781261
vt 0.031279 0.812489
vt 0.749941 0.812489
vt 0.812517 0.624948
vt 0.843715 0.546901
vt 0.812517 0.546901
vt 0.843733 0.624974
vt 0.812535 0.624974
vt 0.749937 0.562513
vt 0.218767 0.593724
vt 0.031295 0.562513
vt 0.812517 0.937474
vt 0.843715 0.781322
vt 0.812517 0.968705
vt 0.374981 0.499975
vt 0.031358 0.499975
vt 0.562411 0.468799
vt 0.093772 0.812478
vt 0.843727 0.562521
vt 0.812546 0.624937
vt 0.843727 0.546917
vt 0.812517 0.937474
vt 0.812517 0.968705
vt 0.843715 0.781322
vt 0.093772 0.781294
vt 0.531311 0.703102
vt 0.656219 0.687494
vt 0.656219 0.656279
vt 0.843727 0.593729
vt 0.843727 0.609333
vt 0.812546 0.531313
vt 0.093772 0.812478
vt 0.625039 0.468772
vt 0.812439 0.531206
vt 0.656272 0.468772
vt 0.812483 0.781224
vt 0.812483 0.625030
vt 0.687535 0.718746
vt 0.656219 0.687494
vt 0.531311 0.703102
vt 0.656219 0.656279
vt 0.093772 0.781294
vt 0.093721 0.750011
vt 0.093721 0.742209
vt 0.031309 0.781217
vt 0.218763 0.843779
vt 0.749954 0.906236
vt 0.031283 0.906236
vt 0.687535 0.718746
vt 0.812483 0.625030
vt 0.812483 0.781224
vt 0.625039 0.468772
vt 0.656272 0.468772
vt 0.812439 0.531206
vt 0.031332 0.656278
vt 0.374985 0.656278
vt 0.562433 0.718695
vt 0.093721 0.742209
vt 0.093721 0.750011
vt 0.031309 0.781217
vt 0.093772 0.812478
vt 0.093772 0.781294
vt 0.093772 0.812478
vt 0.093772 0.781294
vn -1.0000 0.0000 0.0000
vn 1.0000 0.0000 0.0000
vn 0.0000 -1.0000 0.0000
vn 0.0000 1.0000 0.0000
vn 0.0000 0.0000 1.0000
vn 0.0000 0.0000 -1.0000
usemtl lambert0.007
s off
f 1/1/1 2/2/1 3/3/1
f 1/1/1 4/4/1 2/5/1
f 5/6/1 6/7/1 7/8/1
f 5/6/1 8/9/1 6/10/1
f 9/11/1 10/12/1 11/13/1
f 9/11/1 12/14/1 10/15/1
f 13/16/1 14/17/1 15/18/1
f 13/16/1 16/19/1 14/20/1
f 17/21/1 18/22/1 19/23/1
f 17/21/1 20/24/1 18/25/1
f 21/26/1 22/27/1 23/28/1
f 21/26/1 24/29/1 22/30/1
f 22/31/1 25/32/1 26/33/1
f 22/31/1 27/34/1 25/32/1
f 28/35/1 29/36/1 30/37/1
f 28/35/1 23/38/1 29/36/1
f 29/39/1 31/40/1 32/41/1
f 29/39/1 26/42/1 31/43/1
f 33/44/1 34/45/1 35/46/1
f 33/47/1 36/48/1 34/45/1
f 38/49/2 37/50/2 39/51/2
f 40/52/2 37/50/2 38/53/2
f 42/54/2 41/55/2 43/56/2
f 44/57/2 41/55/2 42/58/2
f 46/59/2 45/60/2 47/61/2
f 48/62/2 45/60/2 46/63/2
f 50/64/2 49/65/2 51/66/2
f 52/67/2 49/65/2 50/68/2
f 54/69/2 53/70/2 55/71/2
f 56/72/2 53/70/2 54/73/2
f 58/74/2 57/75/2 59/76/2
f 60/77/2 57/75/2 58/78/2
f 61/79/2 58/80/2 62/81/2
f 63/82/2 58/80/2 61/79/2
f 65/83/2 64/84/2 66/85/2
f 59/86/2 64/84/2 65/83/2
f 67/87/2 65/88/2 68/89/2
f 62/90/2 65/88/2 67/91/2
f 70/92/2 69/93/2 71/94/2
f 72/95/2 69/96/2 70/92/2
f 31/97/3 68/98/3 32/99/3
f 67/100/3 68/98/3 31/101/3
f 62/90/3 71/102/3 65/103/3
f 70/104/3 71/102/3 62/105/3
f 25/106/3 62/107/3 26/108/3
f 61/109/3 62/107/3 25/110/3
f 29/111/3 66/112/3 30/113/3
f 65/114/3 66/112/3 29/115/3
f 34/116/3 29/39/3 35/117/3
f 26/42/3 29/39/3 34/118/3
f 48/119/3 17/120/3 45/121/3
f 20/122/3 17/120/3 48/123/3
f 49/124/3 20/125/3 48/123/3
f 49/124/3 48/126/3 13/127/3
f 52/128/3 20/125/3 49/129/3
f 13/130/3 48/126/3 12/131/3
f 13/130/3 12/132/3 41/133/3
f 44/134/3 13/135/3 41/133/3
f 41/136/3 12/132/3 40/137/3
f 16/138/3 13/135/3 44/139/3
f 41/136/3 40/140/3 5/141/3
f 12/142/3 9/143/3 40/137/3
f 5/144/3 40/140/3 4/145/3
f 40/146/3 9/143/3 37/147/3
f 5/144/3 4/148/3 56/149/3
f 8/150/3 5/151/3 56/149/3
f 4/152/3 53/153/3 56/149/3
f 1/154/3 53/153/3 4/145/3
f 19/155/4 46/156/4 47/157/4
f 19/155/4 18/158/4 46/159/4
f 18/160/4 51/161/4 46/159/4
f 46/162/4 51/161/4 15/163/4
f 18/160/4 50/164/4 51/165/4
f 46/162/4 15/166/4 10/167/4
f 10/168/4 15/166/4 43/169/4
f 15/170/4 42/171/4 43/169/4
f 10/168/4 43/172/4 38/173/4
f 15/170/4 14/174/4 42/175/4
f 38/176/4 43/172/4 7/177/4
f 11/178/4 10/179/4 38/173/4
f 38/176/4 7/180/4 2/181/4
f 11/178/4 38/182/4 39/183/4
f 2/184/4 7/180/4 54/185/4
f 7/186/4 6/187/4 54/185/4
f 55/188/4 2/189/4 54/185/4
f 55/188/4 3/190/4 2/181/4
f 69/191/4 58/74/4 59/76/4
f 69/191/4 72/192/4 58/78/4
f 58/193/4 27/194/4 22/195/4
f 58/193/4 63/196/4 27/197/4
f 64/198/4 23/199/4 28/200/4
f 64/198/4 59/201/4 23/202/4
f 23/203/4 36/204/4 33/205/4
f 23/203/4 22/27/4 36/206/4
f 57/207/4 24/208/4 21/209/4
f 57/207/4 60/210/4 24/211/4
f 71/212/5 59/213/5 65/214/5
f 71/212/5 69/215/5 59/216/5
f 59/217/5 21/218/5 23/219/5
f 59/217/5 57/220/5 21/221/5
f 68/98/5 29/222/5 32/99/5
f 68/98/5 65/223/5 29/224/5
f 29/225/5 33/44/5 35/46/5
f 29/225/5 23/226/5 33/47/5
f 51/227/5 13/228/5 15/18/5
f 51/227/5 49/229/5 13/230/5
f 43/231/5 5/232/5 7/8/5
f 43/231/5 41/233/5 5/234/5
f 11/235/5 30/236/5 66/112/5
f 66/237/5 47/238/5 11/239/5
f 11/240/5 39/241/5 30/242/5
f 47/243/5 9/244/5 11/13/5
f 66/245/5 19/246/5 47/247/5
f 39/248/5 3/249/5 30/250/5
f 47/243/5 45/251/5 9/252/5
f 19/253/5 66/254/5 17/255/5
f 3/256/5 55/257/5 30/37/5
f 39/258/5 1/259/5 3/3/5
f 64/260/5 9/261/5 45/262/5
f 66/263/5 64/264/5 17/265/5
f 30/266/5 55/267/5 53/268/5
f 39/258/5 37/269/5 1/270/5
f 45/271/5 17/272/5 64/273/5
f 28/274/5 9/275/5 64/276/5
f 30/277/5 53/278/5 28/279/5
f 1/280/5 37/281/5 28/282/5
f 37/283/5 9/284/5 28/285/5
f 53/286/5 1/287/5 28/288/5
f 58/289/6 70/92/6 62/290/6
f 72/95/6 70/92/6 58/291/6
f 24/208/6 58/193/6 22/195/6
f 60/210/6 58/193/6 24/211/6
f 26/292/6 67/293/6 31/294/6
f 62/295/6 67/293/6 26/296/6
f 36/297/6 26/298/6 34/299/6
f 22/300/6 26/298/6 36/301/6
f 25/302/6 14/303/6 61/304/6
f 50/305/6 61/306/6 14/307/6
f 42/308/6 14/309/6 25/310/6
f 16/19/6 50/311/6 14/20/6
f 18/312/6 61/313/6 50/314/6
f 6/315/6 42/316/6 25/317/6
f 52/67/6 50/311/6 16/318/6
f 61/319/6 18/320/6 20/321/6
f 54/322/6 6/323/6 25/324/6
f 8/9/6 42/325/6 6/10/6
f 16/326/6 63/327/6 52/328/6
f 63/329/6 61/330/6 20/331/6
f 54/332/6 25/333/6 56/334/6
f 44/57/6 42/325/6 8/335/6
f 20/336/6 52/337/6 63/338/6
f 16/339/6 27/340/6 63/341/6
f 56/342/6 25/343/6 27/344/6
f 44/345/6 8/346/6 27/347/6
f 16/348/6 44/349/6 27/350/6
f 8/351/6 56/352/6 27/353/6
f 12/14/6 46/354/6 10/15/6
f 48/62/6 46/354/6 12/355/6
f 4/4/6 38/356/6 2/5/6
f 40/52/6 38/356/6 4/357/6
