# Blender v2.93.4 OBJ File: ''
# www.blender.org
mtllib SmallBrokenBrick.mtl
o YellowSmallBrokenBrick.Merged_Plane-tex.005
v -3.000000 13.000000 5.000000
v -3.000000 11.000000 -5.000000
v -3.000000 11.000000 5.000000
v -3.000000 13.000000 -5.000000
v -3.000000 1.000000 -7.000000
v -3.000000 1.000000 -5.000000
v -3.000000 11.000000 -7.000000
v -3.000000 11.000000 7.000000
v -3.000000 1.000000 5.000000
v -3.000000 1.000000 7.000000
v -3.000000 -1.000000 -5.000000
v -3.000000 -1.000000 5.000000
v 5.000000 7.000000 7.000000
v 5.000000 3.000000 -7.000000
v 5.000000 3.000000 7.000000
v 5.000000 7.000000 -7.000000
v -5.000000 11.000000 5.000000
v -5.000000 1.000000 -5.000000
v -5.000000 1.000000 5.000000
v -5.000000 11.000000 -5.000000
v -1.000000 7.000000 7.000000
v -1.000000 3.000000 -7.000000
v -1.000000 3.000000 7.000000
v -1.000000 7.000000 -7.000000
v 7.000000 13.000000 5.000000
v 7.000000 11.000000 -5.000000
v 7.000000 11.000000 5.000000
v 7.000000 13.000000 -5.000000
v 7.000000 1.000000 -7.000000
v 7.000000 1.000000 -5.000000
v 7.000000 11.000000 -7.000000
v 7.000000 11.000000 7.000000
v 7.000000 1.000000 5.000000
v 7.000000 1.000000 7.000000
v 7.000000 -1.000000 -5.000000
v 7.000000 -1.000000 5.000000
v 9.000000 11.000000 5.000000
v 9.000000 1.000000 -5.000000
v 9.000000 1.000000 5.000000
v 9.000000 11.000000 -5.000000
vt 0.437478 0.906228
vt 0.437478 0.875044
vt 0.406294 0.906228
vt 0.437478 0.875044
vt 0.406294 0.906228
vt 0.187557 0.843763
vt 0.343722 0.874974
vt 0.343722 0.843763
vt 0.187528 0.843776
vt 0.187528 0.874987
vt 0.187557 0.843763
vt 0.343722 0.874974
vt 0.343722 0.843763
vt 0.187528 0.843776
vt 0.187528 0.874987
vt 0.437478 0.906228
vt 0.437478 0.875044
vt 0.406294 0.906228
vt 0.437478 0.875044
vt 0.406294 0.906228
vt 0.500017 0.812448
vt 0.531215 0.750026
vt 0.500017 0.750026
vt 0.500035 0.812474
vt 0.531233 0.812474
vt 0.531233 0.750052
vt 0.406263 0.906193
vt 0.437474 0.750028
vt 0.406263 0.750028
vt 0.437487 0.906222
vt 0.437487 0.750057
vt 0.531215 0.750026
vt 0.500017 0.812448
vt 0.500017 0.750026
vt 0.531233 0.812474
vt 0.500035 0.812474
vt 0.531233 0.750052
vt 0.437478 0.875044
vt 0.437478 0.906228
vt 0.406294 0.906228
vt 0.437478 0.875044
vt 0.406294 0.906228
vt 0.343722 0.874974
vt 0.187557 0.843763
vt 0.343722 0.843763
vt 0.187528 0.874987
vt 0.187528 0.843776
vt 0.343722 0.874974
vt 0.187557 0.843763
vt 0.343722 0.843763
vt 0.187528 0.874987
vt 0.187528 0.843776
vt 0.437478 0.875044
vt 0.437478 0.906228
vt 0.406294 0.906228
vt 0.437478 0.875044
vt 0.406294 0.906228
vt 0.437474 0.750028
vt 0.406263 0.906193
vt 0.406263 0.750028
vt 0.437487 0.906222
vt 0.437487 0.750057
vt 0.437478 0.906228
vt 0.406294 0.906228
vt 0.437478 0.875044
vt 0.406294 0.906228
vt 0.406222 0.968724
vt 0.250057 0.937513
vt 0.406222 0.937513
vt 0.250028 0.968737
vt 0.250028 0.937526
vt 0.406222 0.968724
vt 0.250057 0.937513
vt 0.406222 0.937513
vt 0.250028 0.968737
vt 0.250028 0.937526
vt 0.437478 0.875044
vt 0.406294 0.906228
vt 0.406294 0.906228
vt 0.343722 0.781224
vt 0.187557 0.750013
vt 0.343722 0.750013
vt 0.187528 0.781237
vt 0.187528 0.750026
vt 0.531206 0.749978
vt 0.500022 0.749978
vt 0.500022 0.718794
vt 0.531206 0.749978
vt 0.500022 0.718794
vt 0.031265 0.906195
vt 0.062470 0.812527
vt 0.031265 0.812527
vt 0.062485 0.906223
vt 0.062485 0.812555
vt 0.437478 0.906228
vt 0.437478 0.875044
vt 0.458378 0.875022
vt 0.510395 0.906206
vt 0.510395 0.875022
vt 0.458355 0.906228
vt 0.458378 0.875022
vt 0.510395 0.906206
vt 0.510395 0.875022
vt 0.458355 0.906228
vt 0.437478 0.906228
vt 0.437478 0.875044
vt 0.406294 0.906228
vt 0.458378 0.875022
vt 0.510395 0.906206
vt 0.510395 0.875022
vt 0.458355 0.906228
vt 0.437474 0.750028
vt 0.406263 0.750028
vt 0.437487 0.750057
vt 0.458378 0.875022
vt 0.510395 0.906206
vt 0.510395 0.875022
vt 0.458355 0.906228
vt 0.343722 0.781224
vt 0.187528 0.781237
vt 0.437474 0.750028
vt 0.437487 0.750057
vt 0.281267 0.968724
vt 0.062577 0.812478
vt 0.156228 0.812478
vt 0.187445 0.781294
vt 0.312484 0.843777
vt 0.343686 0.874946
vt 0.250080 0.843777
vt 0.312484 0.874973
vt 0.250080 0.874973
vt 0.343698 0.874985
vt 0.187546 0.874985
vt 0.250007 0.843781
vt 0.250007 0.874969
vt 0.125049 0.937490
vt 0.187476 0.947897
vt 0.187476 0.895863
vt 0.093760 0.906280
vt 0.124965 0.906280
vt 0.083358 0.968691
vt 0.406263 0.750028
vt 0.343722 0.781224
vt 0.187557 0.750013
vt 0.343722 0.750013
vt 0.187528 0.781237
vt 0.187528 0.750026
vt 0.437474 0.750028
vt 0.406263 0.750028
vt 0.437487 0.906222
vt 0.437487 0.750057
vt 0.281267 0.968724
vt 0.250034 0.937513
vt 0.406199 0.937513
vt 0.156228 0.812478
vt 0.062577 0.812478
vt 0.187445 0.781294
vt 0.343686 0.874946
vt 0.312484 0.843777
vt 0.250080 0.843777
vt 0.312484 0.874973
vt 0.343686 0.843804
vt 0.250080 0.874973
vt 0.250007 0.843781
vt 0.250007 0.874969
vt 0.187546 0.843765
vt 0.187476 0.947897
vt 0.125049 0.937490
vt 0.187476 0.895863
vt 0.124965 0.906280
vt 0.093760 0.906280
vt 0.083358 0.968691
vn -1.0000 0.0000 0.0000
vn 1.0000 0.0000 0.0000
vn 0.0000 -1.0000 0.0000
vn 0.0000 1.0000 0.0000
vn 0.0000 0.0000 1.0000
vn 0.0000 0.0000 -1.0000
usemtl lambert0.005
s off
f 1/1/1 2/2/1 3/3/1
f 1/1/1 4/4/1 2/5/1
f 2/6/1 5/7/1 6/8/1
f 2/9/1 7/10/1 5/7/1
f 8/11/1 9/12/1 10/13/1
f 8/14/1 3/15/1 9/12/1
f 9/16/1 11/17/1 12/18/1
f 9/16/1 6/19/1 11/20/1
f 13/21/1 14/22/1 15/23/1
f 13/24/1 16/25/1 14/26/1
f 17/27/1 18/28/1 19/29/1
f 17/27/1 20/30/1 18/31/1
f 22/32/2 21/33/2 23/34/2
f 24/35/2 21/36/2 22/37/2
f 26/38/2 25/39/2 27/40/2
f 28/41/2 25/39/2 26/42/2
f 29/43/2 26/44/2 30/45/2
f 31/46/2 26/47/2 29/43/2
f 33/48/2 32/49/2 34/50/2
f 27/51/2 32/52/2 33/48/2
f 35/53/2 33/54/2 36/55/2
f 30/56/2 33/54/2 35/57/2
f 38/58/2 37/59/2 39/60/2
f 40/61/2 37/59/2 38/62/2
f 30/56/3 39/63/3 33/64/3
f 38/65/3 39/63/3 30/66/3
f 5/67/3 30/68/3 6/69/3
f 29/70/3 30/71/3 5/67/3
f 9/72/3 34/73/3 10/74/3
f 33/75/3 34/76/3 9/72/3
f 18/77/3 9/16/3 19/78/3
f 6/19/3 9/16/3 18/79/3
f 11/80/3 36/81/3 12/82/3
f 35/83/3 36/84/3 11/80/3
f 24/85/3 13/86/3 21/87/3
f 16/88/3 13/86/3 24/89/3
f 15/90/4 22/91/4 23/92/4
f 15/90/4 14/93/4 22/94/4
f 37/95/4 26/38/4 27/40/4
f 37/95/4 40/96/4 26/42/4
f 26/97/4 7/98/4 2/99/4
f 26/97/4 31/100/4 7/98/4
f 32/101/4 3/102/4 8/103/4
f 32/101/4 27/104/4 3/102/4
f 3/105/4 20/106/4 17/27/4
f 3/105/4 2/2/4 20/107/4
f 25/108/4 4/109/4 1/110/4
f 25/108/4 28/111/4 4/109/4
f 39/112/5 27/40/5 33/113/5
f 39/114/5 37/95/5 27/40/5
f 27/115/5 1/116/5 3/117/5
f 27/115/5 25/118/5 1/116/5
f 36/81/5 9/119/5 12/82/5
f 36/84/5 33/120/5 9/119/5
f 9/121/5 17/27/5 19/29/5
f 9/122/5 3/105/5 17/27/5
f 34/76/5 15/123/5 10/74/5
f 15/124/5 23/125/5 10/126/5
f 15/127/5 34/128/5 13/129/5
f 10/13/5 23/130/5 21/131/5
f 34/132/5 32/133/5 13/134/5
f 10/13/5 21/135/5 8/14/5
f 13/136/5 32/137/5 8/138/5
f 21/139/5 13/140/5 8/141/5
f 26/42/6 38/58/6 30/142/6
f 40/61/6 38/62/6 26/42/6
f 4/109/6 26/97/6 2/99/6
f 28/111/6 26/97/6 4/109/6
f 6/143/6 35/144/6 11/145/6
f 30/146/6 35/147/6 6/143/6
f 20/107/6 6/148/6 18/149/6
f 2/150/6 6/151/6 20/107/6
f 14/152/6 29/153/6 5/154/6
f 22/155/6 14/156/6 5/157/6
f 29/158/6 14/159/6 16/160/6
f 22/161/6 5/162/6 24/163/6
f 31/46/6 29/43/6 16/164/6
f 24/165/6 5/162/6 7/166/6
f 31/167/6 16/168/6 7/169/6
f 16/170/6 24/171/6 7/172/6
